<svg width="694" height="195" viewBox="0 0 694 195" fill="none" xmlns="http://www.w3.org/2000/svg">
<path d="M186.29 69.55V88.01H216.06V105.17H186.29V125.19H219.96V143H164.06V51.74H219.96V69.55H186.29ZM261.952 69.42C267.065 69.42 271.529 70.46 275.342 72.54C279.242 74.62 282.232 77.35 284.312 80.73V70.46H306.542V142.87C306.542 149.543 305.199 155.567 302.512 160.94C299.912 166.4 295.882 170.733 290.422 173.94C285.049 177.147 278.332 178.75 270.272 178.75C259.525 178.75 250.815 176.193 244.142 171.08C237.469 166.053 233.655 159.207 232.702 150.54H254.672C255.365 153.313 257.012 155.48 259.612 157.04C262.212 158.687 265.419 159.51 269.232 159.51C273.825 159.51 277.465 158.167 280.152 155.48C282.925 152.88 284.312 148.677 284.312 142.87V132.6C282.145 135.98 279.155 138.753 275.342 140.92C271.529 143 267.065 144.04 261.952 144.04C255.972 144.04 250.555 142.523 245.702 139.49C240.849 136.37 236.992 131.993 234.132 126.36C231.359 120.64 229.972 114.053 229.972 106.6C229.972 99.1467 231.359 92.6033 234.132 86.97C236.992 81.3367 240.849 77.0033 245.702 73.97C250.555 70.9367 255.972 69.42 261.952 69.42ZM284.312 106.73C284.312 101.183 282.752 96.8067 279.632 93.6C276.599 90.3933 272.872 88.79 268.452 88.79C264.032 88.79 260.262 90.3933 257.142 93.6C254.109 96.72 252.592 101.053 252.592 106.6C252.592 112.147 254.109 116.567 257.142 119.86C260.262 123.067 264.032 124.67 268.452 124.67C272.872 124.67 276.599 123.067 279.632 119.86C282.752 116.653 284.312 112.277 284.312 106.73ZM366.824 69.68C375.318 69.68 382.078 72.4533 387.104 78C392.218 83.46 394.774 91 394.774 100.62V143H372.674V103.61C372.674 98.7567 371.418 94.9867 368.904 92.3C366.391 89.6133 363.011 88.27 358.764 88.27C354.518 88.27 351.138 89.6133 348.624 92.3C346.111 94.9867 344.854 98.7567 344.854 103.61V143H322.624V70.46H344.854V80.08C347.108 76.8733 350.141 74.36 353.954 72.54C357.768 70.6333 362.058 69.68 366.824 69.68ZM421.402 62.92C417.502 62.92 414.295 61.7933 411.782 59.54C409.355 57.2 408.142 54.34 408.142 50.96C408.142 47.4933 409.355 44.6333 411.782 42.38C414.295 40.04 417.502 38.87 421.402 38.87C425.215 38.87 428.335 40.04 430.762 42.38C433.275 44.6333 434.532 47.4933 434.532 50.96C434.532 54.34 433.275 57.2 430.762 59.54C428.335 61.7933 425.215 62.92 421.402 62.92ZM432.452 70.46V143H410.222V70.46H432.452ZM488.992 124.15V143H477.682C469.622 143 463.339 141.05 458.832 137.15C454.325 133.163 452.072 126.707 452.072 117.78V88.92H443.232V70.46H452.072V52.78H474.302V70.46H488.862V88.92H474.302V118.04C474.302 120.207 474.822 121.767 475.862 122.72C476.902 123.673 478.635 124.15 481.062 124.15H488.992ZM569.754 105.56C569.754 107.64 569.624 109.807 569.364 112.06H519.054C519.401 116.567 520.831 120.033 523.344 122.46C525.944 124.8 529.108 125.97 532.834 125.97C538.381 125.97 542.238 123.63 544.404 118.95H568.064C566.851 123.717 564.641 128.007 561.434 131.82C558.314 135.633 554.371 138.623 549.604 140.79C544.838 142.957 539.508 144.04 533.614 144.04C526.508 144.04 520.181 142.523 514.634 139.49C509.088 136.457 504.754 132.123 501.634 126.49C498.514 120.857 496.954 114.27 496.954 106.73C496.954 99.19 498.471 92.6033 501.504 86.97C504.624 81.3367 508.958 77.0033 514.504 73.97C520.051 70.9367 526.421 69.42 533.614 69.42C540.634 69.42 546.874 70.8933 552.334 73.84C557.794 76.7867 562.041 80.99 565.074 86.45C568.194 91.91 569.754 98.28 569.754 105.56ZM547.004 99.71C547.004 95.8967 545.704 92.8633 543.104 90.61C540.504 88.3567 537.254 87.23 533.354 87.23C529.628 87.23 526.464 88.3133 523.864 90.48C521.351 92.6467 519.791 95.7233 519.184 99.71H547.004ZM603.712 46.8V143H581.482V46.8H603.712ZM693.922 70.46L648.422 177.45H624.502L641.142 140.53L611.632 70.46H636.462L653.232 115.83L669.872 70.46H693.922Z" fill="white"/>
<rect y="40" width="120" height="120" rx="60" fill="#FF5F21"/>
<path fill-rule="evenodd" clip-rule="evenodd" d="M90.7918 75.4285C91.3796 75.6825 91.9687 75.9369 92.5581 76.19C92.7747 76.2315 92.9775 76.3227 93.1562 76.4499C93.4334 76.594 93.6257 76.829 93.7421 77.1031C93.8818 77.3801 93.9276 77.7216 93.8861 78.0543C93.9093 79.1913 93.9005 80.3345 93.8918 81.4756C93.8872 82.0722 93.8826 82.6682 93.8826 83.2624V94.241V107.02V117.528V121.94C93.8826 122.699 93.3316 123.363 92.6171 123.543C91.7519 123.941 90.8734 124.314 89.9962 124.686L89.9959 124.686L89.9947 124.687L89.9934 124.687L89.9921 124.688L89.9908 124.688L89.9895 124.689L89.9883 124.689C89.523 124.887 89.058 125.084 88.5956 125.285C87.1045 125.934 85.6153 126.584 84.1262 127.235C82.6373 127.885 81.1484 128.536 79.6574 129.184C76.2209 130.688 72.7926 132.183 69.3561 133.678C68.3313 134.125 67.3054 134.573 66.2788 135.021L66.2708 135.025L66.267 135.026L66.2632 135.028L66.2514 135.033L66.2437 135.036C64.4354 135.826 62.6249 136.617 60.8144 137.404C60.2196 137.664 59.6269 137.922 59.0342 138.18C58.4415 138.438 57.8487 138.697 57.254 138.957C56.6922 139.205 56.1387 139.279 55.5853 138.957C55.0814 138.659 54.7674 138.114 54.7674 137.528V135.033V124.22V118.526L54.3913 118.363C54.0155 118.2 53.6397 118.036 53.2639 117.875C49.7807 116.373 46.2892 114.863 42.7977 113.352L42.7892 113.348C41.6744 112.865 40.5575 112.382 39.4407 111.899L39.4376 111.898L39.4264 111.893L39.4045 111.884C38.4576 111.474 37.5106 111.064 36.565 110.655C36.3855 110.627 36.2054 110.564 36.0236 110.457C35.5197 110.16 35.2057 109.614 35.2057 109.028V106.071V93.2002V86.0179C32.2015 84.7056 29.1891 83.3933 26.1766 82.081C25.4207 81.7506 24.6647 81.4222 23.9088 81.0938L23.9065 81.0928C23.1515 80.7648 22.3965 80.4368 21.6414 80.1067C21.4059 80.0034 21.1725 79.9022 20.9391 79.801L20.939 79.801L20.9389 79.8009L20.9387 79.8008C20.7055 79.6997 20.4723 79.5986 20.2371 79.4954C20.1224 79.444 19.9112 79.3548 19.8055 79.3101L19.8053 79.31C19.7663 79.2935 19.7417 79.2831 19.7418 79.283C19.7418 79.2828 19.8127 79.312 20.0041 79.3911L20.0079 79.3927L20.0089 79.3931L20.0698 79.4182C19.4557 79.1614 19.0049 78.7502 18.9153 78.058C18.8327 77.4798 19.1053 76.6702 19.7001 76.4141C19.7827 76.3728 19.8571 76.3398 19.9397 76.3067C20.7947 75.9391 21.6476 75.5694 22.5006 75.1998C23.3535 74.8301 24.2064 74.4604 25.0614 74.0928C26.6144 73.4237 28.1654 72.7525 29.7164 72.0813C31.2674 71.4101 32.8183 70.7389 34.3714 70.0698C36.4048 69.1941 38.4354 68.3156 40.4649 67.4376L40.4652 67.4375C41.8818 66.8246 43.2979 66.2119 44.7139 65.6007C46.0646 65.0183 47.4153 64.4338 48.7659 63.8494C50.1165 63.2649 51.4672 62.6805 52.8178 62.0981C53.0806 61.9846 53.3444 61.8701 53.6089 61.7553C54.0762 61.5524 54.5457 61.3486 55.0152 61.1481C55.0935 61.1151 55.1698 61.0821 55.2461 61.0492L55.2465 61.049C55.3229 61.0159 55.3993 60.9829 55.4778 60.9498C55.5149 60.934 55.5515 60.9178 55.588 60.9017L55.5883 60.9016L55.5883 60.9016C55.836 60.7924 56.0738 60.6876 56.3617 60.702C56.6839 60.7185 56.9565 60.8259 57.2456 60.9498C58.6748 61.5611 60.1039 62.1807 61.533 62.8003C63.0214 63.4434 64.5118 64.0866 66.0023 64.7298L66.0105 64.7334C67.5036 65.3777 68.9967 66.022 70.4878 66.6663C72.2225 67.4139 73.9552 68.1615 75.688 68.9092L75.6935 68.9116C77.4244 69.6584 79.1552 70.4052 80.8882 71.152C82.3188 71.7704 83.7514 72.3888 85.1841 73.0072L85.192 73.0107C86.6274 73.6302 88.0627 74.2498 89.4959 74.8693C89.9234 75.0534 90.3519 75.2385 90.7811 75.4239L90.785 75.4256L90.7889 75.4272L90.7918 75.4285ZM58.0553 79.0802V79.545V92.4484V99.5061C58.5459 99.7184 59.0375 99.9329 59.5256 100.147C61.2724 100.907 63.0212 101.667 64.77 102.427C66.0995 103.005 67.429 103.582 68.7576 104.16C69.2186 104.359 69.6797 104.558 70.1409 104.757C71.2355 105.228 72.328 105.701 73.4205 106.174C73.6848 106.288 73.9491 106.403 74.2135 106.517V106.029C74.2135 106.026 74.2135 106.023 74.2135 106.019V93.1093V86.0922C73.7211 85.8772 73.2297 85.6643 72.7348 85.4515L62.227 80.8915C61.1159 80.4082 60.0069 79.927 58.8979 79.4458C58.617 79.324 58.3362 79.2021 58.0553 79.0802Z" fill="white"/>
</svg>
